<?xml version="1.0" encoding="UTF-8" standalone="no"?>
<svg
   xmlns:dc="http://purl.org/dc/elements/1.1/"
   xmlns:cc="http://creativecommons.org/ns#"
   xmlns:rdf="http://www.w3.org/1999/02/22-rdf-syntax-ns#"
   xmlns:svg="http://www.w3.org/2000/svg"
   xmlns="http://www.w3.org/2000/svg"
   id="svg8"
   version="1.1"
   viewBox="0 0 254.81755 136.52501"
   height="516"
   width="963.08997">
  <defs
     id="defs2" />
  <metadata
     id="metadata5">
    <rdf:RDF>
      <cc:Work
         rdf:about="">
        <dc:format>image/svg+xml</dc:format>
        <dc:type
           rdf:resource="http://purl.org/dc/dcmitype/StillImage" />
        <dc:title></dc:title>
      </cc:Work>
    </rdf:RDF>
  </metadata>
  <g
     transform="translate(66.801825,7.7719689)"
     id="layer1">
    <g
       transform="matrix(0.5289551,0,0,0.5289551,-50.123838,-11.488748)"
       id="g33">
      <path
         d="M 23.04,31.28 V 231.36 H 396.48 V 31.28 Z M 376.52,212.34 H 43.01 V 50.29 h 333.51 z"
         id="path10" />
      <path
         d="m 118.85,184.28 c 5.24,-5.76 7.86,-14.06 7.86,-24.89 v -6.91 c 0,-6.57 -0.98,-11.75 -2.94,-15.56 -1.96,-3.8 -5.01,-6.68 -9.16,-8.64 4.03,-2.3 7.03,-5.07 8.99,-8.3 1.04,-1.73 1.81,-3.74 2.33,-6.05 0.52,-2.3 0.78,-5.13 0.78,-8.47 v -4.49 c 0,-4.03 -0.55,-7.92 -1.64,-11.67 -1.1,-3.74 -2.91,-7.06 -5.44,-9.94 -2.54,-2.88 -5.79,-5.19 -9.77,-6.91 -3.98,-1.73 -8.79,-2.59 -14.43,-2.59 H 61.75 V 192.92 H 93.7 c 11.52,0 19.9,-2.88 25.15,-8.64 z M 79.38,86.45 h 15.18 c 5.88,0 9.94,1.38 12.19,4.15 2.25,2.77 3.37,6.91 3.37,12.44 0,5.65 -1.01,9.94 -3.02,12.88 -2.02,2.94 -5.96,4.41 -11.84,4.41 H 79.38 Z m 0,49.43 h 15.7 c 3.22,0 5.82,0.38 7.78,1.12 1.96,0.75 3.51,1.93 4.67,3.54 1.04,1.61 1.73,3.57 2.07,5.88 0.35,2.31 0.52,5.01 0.52,8.12 0,3 -0.12,5.76 -0.35,8.3 -0.23,2.54 -0.86,4.73 -1.9,6.57 -1.04,1.84 -2.57,3.28 -4.58,4.32 -2.02,1.04 -4.81,1.56 -8.38,1.56 H 79.38 Z"
         id="path12" />
      <path
         d="M 198.58,175.29 H 163.67 V 69.85 h -17.63 v 123.07 h 52.54 z"
         id="path14" />
      <path
         d="m 227.66,186.35 c 2.77,2.54 5.9,4.44 9.42,5.7 3.51,1.27 7.06,1.9 10.63,1.9 3.57,0 7.11,-0.63 10.63,-1.9 3.51,-1.27 6.71,-3.17 9.59,-5.7 2.77,-2.42 5.01,-5.47 6.74,-9.16 1.73,-3.69 2.59,-8.12 2.59,-13.31 V 98.89 c 0,-4.95 -0.86,-9.33 -2.59,-13.14 -1.73,-3.8 -3.98,-6.97 -6.74,-9.51 -2.88,-2.42 -6.08,-4.26 -9.59,-5.53 -3.52,-1.27 -7.06,-1.9 -10.63,-1.9 -3.57,0 -7.12,0.63 -10.63,1.9 -3.52,1.27 -6.65,3.11 -9.42,5.53 -2.88,2.54 -5.19,5.7 -6.91,9.51 -1.73,3.8 -2.59,8.18 -2.59,13.14 v 64.99 c 0,5.19 0.86,9.62 2.59,13.31 1.73,3.69 4.03,6.74 6.91,9.16 z m 28.43,-13.05 c -2.36,2.02 -5.16,3.02 -8.38,3.02 -3.23,0 -6.02,-1.01 -8.38,-3.02 -2.36,-2.01 -3.54,-5.16 -3.54,-9.42 v -3.95 l 23.85,-41.31 v 45.27 c 0,4.26 -1.19,7.4 -3.55,9.41 z M 239.33,89.47 c 2.36,-2.01 5.16,-3.02 8.38,-3.02 3.22,0 6.02,1.01 8.38,3.02 2.36,2.02 3.54,5.16 3.54,9.42 v 3.47 l -23.85,41.31 V 98.89 c 0,-4.26 1.18,-7.4 3.55,-9.42 z"
         id="path16" />
      <path
         d="m 313.85,156.1 9.5,-17.8 20.05,54.62 h 18.67 l -28.52,-73.8 24.03,-49.27 h -17.63 l -25.76,56.18 h -0.34 V 69.85 h -17.63 v 123.07 h 17.63 z"
         id="path18" />
    </g>
  </g>
</svg>
