<svg viewBox="0 0 373.44 200.08" xmlns="http://www.w3.org/2000/svg"><path d="m0 0v200.08h373.44v-200.08zm353.48 181.06h-333.51v-162.05h333.51z"/><path d="m95.81 153c5.24-5.76 7.86-14.06 7.86-24.89v-6.91c0-6.57-.98-11.75-2.94-15.56-1.96-3.8-5.01-6.68-9.16-8.64 4.03-2.3 7.03-5.07 8.99-8.3 1.04-1.73 1.81-3.74 2.33-6.05.52-2.3.78-5.13.78-8.47v-4.49c0-4.03-.55-7.92-1.64-11.67-1.1-3.74-2.91-7.06-5.44-9.94-2.54-2.88-5.79-5.19-9.77-6.91-3.98-1.73-8.79-2.59-14.43-2.59h-33.68v123.06h31.95c11.52 0 19.9-2.88 25.15-8.64zm-39.47-97.83h15.18c5.88 0 9.94 1.38 12.19 4.15s3.37 6.91 3.37 12.44c0 5.65-1.01 9.94-3.02 12.88-2.02 2.94-5.96 4.41-11.84 4.41h-15.88zm0 49.43h15.7c3.22 0 5.82.38 7.78 1.12 1.96.75 3.51 1.93 4.67 3.54 1.04 1.61 1.73 3.57 2.07 5.88.35 2.31.52 5.01.52 8.12 0 3-.12 5.76-.35 8.3s-.86 4.73-1.9 6.57-2.57 3.28-4.58 4.32c-2.02 1.04-4.81 1.56-8.38 1.56h-15.53z"/><path d="m175.54 144.01h-34.91v-105.44h-17.63v123.07h52.54z"/><path d="m204.62 155.07c2.77 2.54 5.9 4.44 9.42 5.7 3.51 1.27 7.06 1.9 10.63 1.9s7.11-.63 10.63-1.9c3.51-1.27 6.71-3.17 9.59-5.7 2.77-2.42 5.01-5.47 6.74-9.16s2.59-8.12 2.59-13.31v-64.99c0-4.95-.86-9.33-2.59-13.14-1.73-3.8-3.98-6.97-6.74-9.51-2.88-2.42-6.08-4.26-9.59-5.53-3.52-1.27-7.06-1.9-10.63-1.9s-7.12.63-10.63 1.9c-3.52 1.27-6.65 3.11-9.42 5.53-2.88 2.54-5.19 5.7-6.91 9.51-1.73 3.8-2.59 8.18-2.59 13.14v64.99c0 5.19.86 9.62 2.59 13.31s4.03 6.74 6.91 9.16zm28.43-13.05c-2.36 2.02-5.16 3.02-8.38 3.02-3.23 0-6.02-1.01-8.38-3.02s-3.54-5.16-3.54-9.42v-3.95l23.85-41.31v45.27c0 4.26-1.19 7.4-3.55 9.41zm-16.76-83.83c2.36-2.01 5.16-3.02 8.38-3.02s6.02 1.01 8.38 3.02c2.36 2.02 3.54 5.16 3.54 9.42v3.47l-23.85 41.31v-44.78c0-4.26 1.18-7.4 3.55-9.42z"/><path d="m290.81 124.82 9.5-17.8 20.05 54.62h18.67l-28.52-73.8 24.03-49.27h-17.63l-25.76 56.18h-.34v-56.18h-17.63v123.07h17.63z"/></svg>