<?xml version="1.0" encoding="utf-8"?>
<!-- Generator: Adobe Illustrator 24.0.1, SVG Export Plug-In . SVG Version: 6.00 Build 0)  -->
<svg version="1.1" id="Layer_1" xmlns="http://www.w3.org/2000/svg" xmlns:xlink="http://www.w3.org/1999/xlink" x="0px" y="0px"
	 viewBox="0 0 183.71 262.63" style="enable-background:new 0 0 183.71 262.63;" xml:space="preserve">
<style type="text/css">
	.st0{fill:#0B0C0B;}
</style>
<g>
	<g>
		<path class="st0" d="M171.92,252.16H11.79V10.48h160.13V252.16z M33.43,230.51h116.84V32.12H33.43V230.51z"/>
	</g>
	<path d="M125.23,74.84c-2.14-4.71-4.92-8.63-8.34-11.77c-3.57-2.99-7.52-5.27-11.87-6.85c-4.35-1.57-8.74-2.35-13.16-2.35
		c-4.42,0-8.81,0.79-13.16,2.35c-4.35,1.57-8.24,3.85-11.66,6.85c-3.57,3.14-6.42,7.06-8.56,11.77c-2.14,4.71-3.21,10.13-3.21,16.26
		v80.43c0,6.42,1.07,11.91,3.21,16.47c2.14,4.57,4.99,8.34,8.56,11.34c3.42,3.14,7.31,5.49,11.66,7.06
		c4.35,1.57,8.73,2.35,13.16,2.35c4.42,0,8.8-0.79,13.16-2.35c4.35-1.57,8.31-3.92,11.87-7.06c3.42-2.99,6.2-6.77,8.34-11.34
		c2.14-4.56,3.21-10.05,3.21-16.47V91.1C128.43,84.97,127.36,79.55,125.23,74.84z M81.48,79.44c2.92-2.49,6.38-3.74,10.38-3.74
		c3.99,0,7.45,1.25,10.37,3.74c2.92,2.5,4.39,6.38,4.39,11.66v4.3l-29.52,51.13V91.1C77.09,85.83,78.56,81.94,81.48,79.44z
		 M102.23,183.19c-2.92,2.5-6.38,3.74-10.37,3.74c-3.99,0-7.45-1.25-10.38-3.74c-2.92-2.49-4.39-6.38-4.39-11.66v-4.89l29.52-51.13
		v56.02C106.62,176.81,105.15,180.7,102.23,183.19z"/>
</g>
</svg>
